<svg width="22" height="20" viewBox="0 0 22 20" fill="none" xmlns="http://www.w3.org/2000/svg">
  <path d="M19.9661 0.00603614C19.7998 0.028487 19.6459 0.108064 19.5305 0.232043L15.3342 4.51168H15.3266L14.1648 5.70433H14.1572L6.31493 13.7103H6.30735L5.20667 14.8406H5.19908L1.43083 18.6917C1.12753 18.9658 1.09965 19.4388 1.36846 19.7481C1.63727 20.0574 2.10102 20.0859 2.40432 19.8117C2.4278 19.7905 2.44982 19.7678 2.47036 19.7439L6.65908 15.472C8.02075 15.9624 9.48173 16.2281 11.0007 16.2281C15.4592 16.2281 19.4163 13.9338 21.8701 10.4205C22.0445 10.1696 22.0445 9.80611 21.8701 9.55515C20.5576 7.67577 18.8143 6.14811 16.7947 5.13508L20.5708 1.28399C20.8609 0.995368 20.8667 0.521659 20.584 0.225557C20.4225 0.0581733 20.1943 -0.0233995 19.9661 0.00603614ZM11.0002 3.75559C6.54168 3.75559 2.58459 6.04208 0.130798 9.5554C-0.0435994 9.80635 -0.0435994 10.1698 0.130798 10.4208C1.14587 11.8741 2.41753 13.1169 3.87606 14.0768L4.94617 12.9854C3.69139 12.2029 2.5819 11.1873 1.66711 9.99194C3.8768 7.10177 7.22361 5.25231 10.9999 5.25231C11.4879 5.25231 11.9649 5.28574 12.4369 5.34586L13.7135 4.04396C12.8369 3.85487 11.9297 3.75559 11.0002 3.75559ZM11.0002 6.25013C8.98251 6.25013 7.33123 7.93419 7.33123 9.99194C7.33123 10.1698 7.34566 10.3429 7.36939 10.5143L11.5121 6.28904C11.3443 6.26485 11.1746 6.25013 11.0002 6.25013ZM15.6857 6.2656C17.5077 7.08805 19.098 8.37648 20.333 9.99194C18.1233 12.8794 14.7743 14.7316 11.0002 14.7316C9.90121 14.7316 8.84406 14.5669 7.83559 14.2716L8.97443 13.1101C9.55706 13.505 10.2529 13.7338 10.9999 13.7338C13.0176 13.7338 14.6689 12.0497 14.6689 9.99194C14.6689 9.23061 14.4439 8.51991 14.0574 7.92621L15.6857 6.2656ZM12.9875 9.01757C13.1233 9.31118 13.2016 9.64346 13.2016 9.99194C13.2016 11.2407 12.2246 12.237 11.0002 12.237C10.658 12.237 10.3329 12.1575 10.0448 12.0188L12.9875 9.01757Z" fill="#565656" />
</svg>
  