<svg>
  <symbol id="tkoffer" viewBox="0 0 24 24">
    <path d="M12 24C18.6274 24 24 18.6274 24 12C24 5.37258 18.6274 0 12 0C5.37258 0 0 5.37258 0 12C0 18.6274 5.37258 24 12 24Z" style="fill:var(--fill, #FFB611)"/>
    <path d="M9.43006 20.8801C9.37731 20.8794 9.32699 20.8578 9.29006 20.8201C9.19848 20.7766 9.12197 20.7067 9.07031 20.6194C9.01866 20.5321 8.9942 20.4314 9.00006 20.3301L10.1301 13.8401L7.85006 13.7401C7.77547 13.7402 7.70214 13.7209 7.63727 13.6841C7.5724 13.6473 7.51822 13.5942 7.48006 13.5301C7.42868 13.481 7.3935 13.4173 7.37921 13.3476C7.36492 13.2779 7.37219 13.2056 7.40006 13.1401L9.89006 3.49013C9.9138 3.37996 9.97635 3.28198 10.0663 3.21406C10.1562 3.14614 10.2676 3.11281 10.3801 3.12013L16.2301 3.52013C16.3108 3.52109 16.3893 3.54643 16.4553 3.59283C16.5214 3.63923 16.5718 3.70453 16.6001 3.78013C16.6343 3.85551 16.652 3.93734 16.652 4.02013C16.652 4.10293 16.6343 4.18476 16.6001 4.26014L13.2101 10.6001L15.7801 10.7101C15.8664 10.7143 15.9502 10.7404 16.0236 10.7859C16.0971 10.8314 16.1578 10.8948 16.2001 10.9701C16.2465 11.0416 16.2713 11.1249 16.2713 11.2101C16.2713 11.2953 16.2465 11.3787 16.2001 11.4501L9.87006 20.6601C9.8219 20.7316 9.75608 20.7894 9.67899 20.828C9.6019 20.8665 9.51615 20.8845 9.43006 20.8801Z" fill="white"/>
  </symbol>
</svg>